<svg width="68" height="17" viewBox="0 0 68 17" fill="black" xmlns="http://www.w3.org/2000/svg">
<path d="M2.116 12.438C1.7 12.438 1.364 12.326 1.108 12.102C0.862668 11.8887 0.740002 11.5953 0.740002 11.222C0.740002 10.8487 0.873335 10.486 1.14 10.134C1.40667 9.782 1.764 9.47267 2.212 9.206C2.66 8.92867 3.16134 8.71 3.716 8.55C4.27067 8.39 4.836 8.30467 5.412 8.294L5.38 8.646C5.03867 8.646 4.65467 8.726 4.228 8.886C3.80134 9.046 3.39067 9.25933 2.996 9.526C2.612 9.79267 2.292 10.0913 2.036 10.422C1.78 10.7527 1.652 11.0887 1.652 11.43C1.652 11.7287 1.80134 11.878 2.1 11.878C2.43067 11.878 2.76667 11.7447 3.108 11.478C3.44934 11.2007 3.75867 10.8487 4.036 10.422C4.324 9.99533 4.55334 9.558 4.724 9.11C4.90534 8.65133 4.996 8.246 4.996 7.894C4.996 7.53133 4.90534 7.21133 4.724 6.934C4.55334 6.65667 4.25467 6.518 3.828 6.518C3.348 6.518 2.93734 6.68867 2.596 7.03C2.25467 7.37133 2.00934 7.85133 1.86 8.47C1.67867 8.44867 1.52934 8.39533 1.412 8.31C1.29467 8.214 1.236 8.07533 1.236 7.894C1.236 7.59533 1.35334 7.29667 1.588 6.998C1.83334 6.69933 2.164 6.454 2.58 6.262C2.996 6.07 3.46534 5.974 3.988 5.974C4.66 5.974 5.17734 6.15533 5.54 6.518C5.90267 6.88067 6.084 7.35 6.084 7.926C6.084 8.406 5.972 8.90733 5.748 9.43C5.53467 9.95267 5.24134 10.4433 4.868 10.902C4.49467 11.3607 4.068 11.7287 3.588 12.006C3.11867 12.294 2.628 12.438 2.116 12.438Z"/>
<path d="M11.7761 12.358C11.4668 12.358 11.2001 12.2513 10.9761 12.038C10.7521 11.8353 10.5708 11.5793 10.4321 11.27C10.3041 10.9607 10.2081 10.6407 10.1441 10.31C10.0801 9.97933 10.0481 9.69133 10.0481 9.446C10.1761 9.43533 10.3521 9.40333 10.5761 9.35C10.8001 9.286 11.0295 9.19533 11.2641 9.078C11.4988 8.95 11.6961 8.79533 11.8561 8.614C12.0161 8.422 12.0961 8.198 12.0961 7.942C12.0961 7.72867 12.0215 7.56333 11.8721 7.446C11.7335 7.318 11.5521 7.254 11.3281 7.254C11.0081 7.254 10.7095 7.366 10.4321 7.59C10.1548 7.80333 9.89879 8.086 9.66413 8.438C9.44013 8.79 9.23213 9.16867 9.04013 9.574C8.85879 9.96867 8.69879 10.3527 8.56013 10.726C8.43213 11.0887 8.32546 11.3927 8.24013 11.638C8.15479 11.8727 8.05346 12.0327 7.93613 12.118C7.82946 12.2033 7.70146 12.246 7.55213 12.246C7.40279 12.246 7.28546 12.1873 7.20013 12.07C7.11479 11.9633 7.05079 11.8033 7.00813 11.59C6.97613 11.3767 6.96013 11.126 6.96013 10.838C6.96013 10.2513 7.05079 9.59 7.23213 8.854C7.41346 8.10733 7.65346 7.33933 7.95213 6.55C8.26146 5.76067 8.59746 4.998 8.96013 4.262C9.32279 3.526 9.68546 2.85933 10.0481 2.262C10.4215 1.66467 10.7628 1.19533 11.0721 0.854C11.3921 0.502 11.6535 0.326 11.8561 0.326C12.0161 0.326 12.1441 0.432667 12.2401 0.646C12.3468 0.848667 12.4001 1.10467 12.4001 1.414C12.4001 1.77667 12.3201 2.182 12.1601 2.63C12.0001 3.078 11.7708 3.53133 11.4721 3.99C11.1841 4.44867 10.8375 4.88067 10.4321 5.286C10.0268 5.69133 9.58946 6.038 9.12013 6.326C8.77879 7.126 8.52279 7.91533 8.35213 8.694C8.18146 9.462 8.09079 10.118 8.08013 10.662C8.26146 10.2247 8.46946 9.76067 8.70413 9.27C8.94946 8.77933 9.22146 8.31 9.52013 7.862C9.82946 7.414 10.1601 7.05133 10.5121 6.774C10.8748 6.486 11.2535 6.342 11.6481 6.342C12.0535 6.342 12.4001 6.486 12.6881 6.774C12.9868 7.062 13.1361 7.40867 13.1361 7.814C13.1361 8.15533 13.0455 8.44333 12.8641 8.678C12.6935 8.91267 12.4801 9.10467 12.2241 9.254C11.9788 9.40333 11.7281 9.51533 11.4721 9.59C11.2268 9.654 11.0188 9.69133 10.8481 9.702C10.8695 9.798 10.9068 9.958 10.9601 10.182C11.0135 10.406 11.0881 10.6353 11.1841 10.87C11.2908 11.094 11.4188 11.2913 11.5681 11.462C11.7175 11.622 11.8988 11.702 12.1121 11.702C12.4001 11.702 12.6828 11.5847 12.9601 11.35C13.2481 11.1047 13.5201 10.7847 13.7761 10.39C14.0321 9.99533 14.2668 9.55267 14.4801 9.062L14.6561 9.254C14.4961 9.78733 14.2615 10.2887 13.9521 10.758C13.6428 11.2273 13.2961 11.6113 12.9121 11.91C12.5388 12.2087 12.1601 12.358 11.7761 12.358ZM9.45613 5.526C9.87213 5.18467 10.2561 4.78467 10.6081 4.326C10.9601 3.85667 11.2428 3.398 11.4561 2.95C11.6695 2.49133 11.7761 2.10733 11.7761 1.798C11.7761 1.766 11.7761 1.74467 11.7761 1.734C11.7761 1.71267 11.7655 1.69667 11.7441 1.686C11.6375 1.70733 11.4561 1.89933 11.2001 2.262C10.9548 2.614 10.6775 3.078 10.3681 3.654C10.0588 4.23 9.75479 4.854 9.45613 5.526Z"/>
<path d="M16.9629 12.166C16.5895 12.166 16.2909 12.0647 16.0669 11.862C15.8535 11.67 15.7469 11.414 15.7469 11.094C15.7469 10.774 15.8215 10.4433 15.9709 10.102C16.1202 9.75 16.2642 9.40333 16.4029 9.062C16.5522 8.72067 16.6269 8.41667 16.6269 8.15C16.6269 7.84067 16.5362 7.606 16.3549 7.446C16.1735 7.27533 15.9762 7.126 15.7629 6.998C15.5282 7.606 15.2722 8.19267 14.9949 8.758C14.7175 9.31267 14.4935 9.73933 14.3229 10.038L14.1469 9.702C14.2962 9.42467 14.4882 9.02467 14.7229 8.502C14.9682 7.96867 15.2082 7.37133 15.4429 6.71C15.3362 6.60333 15.2829 6.47 15.2829 6.31C15.2829 6.00067 15.3682 5.73933 15.5389 5.526C15.7202 5.31267 15.8642 5.206 15.9709 5.206C16.0989 5.206 16.1735 5.26467 16.1949 5.382C16.2269 5.48867 16.2429 5.56867 16.2429 5.622C16.2429 5.67533 16.2162 5.77667 16.1629 5.926C16.1095 6.07533 16.0775 6.17133 16.0669 6.214C16.0775 6.35267 16.1629 6.486 16.3229 6.614C16.4935 6.73133 16.6855 6.86467 16.8989 7.014C17.1229 7.16333 17.3149 7.35 17.4749 7.574C17.6455 7.798 17.7309 8.08067 17.7309 8.422C17.7309 8.73133 17.6615 9.05133 17.5229 9.382C17.3949 9.71267 17.2615 10.022 17.1229 10.31C16.9949 10.598 16.9309 10.854 16.9309 11.078C16.9309 11.2487 16.9735 11.366 17.0589 11.43C17.1549 11.4833 17.2615 11.51 17.3789 11.51C17.6349 11.51 17.8962 11.4353 18.1629 11.286C18.4402 11.126 18.7069 10.9233 18.9629 10.678C19.2295 10.4327 19.4642 10.1767 19.6669 9.91C19.8695 9.63267 20.0189 9.37667 20.1149 9.142L20.3869 9.35C20.1842 9.798 19.9015 10.2407 19.5389 10.678C19.1762 11.1153 18.7709 11.4727 18.3229 11.75C17.8855 12.0273 17.4322 12.166 16.9629 12.166Z"/>
<path d="M21.8035 12.438C21.3875 12.438 21.0515 12.326 20.7955 12.102C20.5502 11.8887 20.4275 11.5953 20.4275 11.222C20.4275 10.8487 20.5608 10.486 20.8275 10.134C21.0942 9.782 21.4515 9.47267 21.8995 9.206C22.3475 8.92867 22.8488 8.71 23.4035 8.55C23.9582 8.39 24.5235 8.30467 25.0995 8.294L25.0675 8.646C24.7262 8.646 24.3422 8.726 23.9155 8.886C23.4888 9.046 23.0782 9.25933 22.6835 9.526C22.2995 9.79267 21.9795 10.0913 21.7235 10.422C21.4675 10.7527 21.3395 11.0887 21.3395 11.43C21.3395 11.7287 21.4888 11.878 21.7875 11.878C22.1182 11.878 22.4542 11.7447 22.7955 11.478C23.1368 11.2007 23.4462 10.8487 23.7235 10.422C24.0115 9.99533 24.2408 9.558 24.4115 9.11C24.5928 8.65133 24.6835 8.246 24.6835 7.894C24.6835 7.53133 24.5928 7.21133 24.4115 6.934C24.2408 6.65667 23.9422 6.518 23.5155 6.518C23.0355 6.518 22.6248 6.68867 22.2835 7.03C21.9422 7.37133 21.6968 7.85133 21.5475 8.47C21.3662 8.44867 21.2168 8.39533 21.0995 8.31C20.9822 8.214 20.9235 8.07533 20.9235 7.894C20.9235 7.59533 21.0408 7.29667 21.2755 6.998C21.5208 6.69933 21.8515 6.454 22.2675 6.262C22.6835 6.07 23.1528 5.974 23.6755 5.974C24.3475 5.974 24.8648 6.15533 25.2275 6.518C25.5902 6.88067 25.7715 7.35 25.7715 7.926C25.7715 8.406 25.6595 8.90733 25.4355 9.43C25.2222 9.95267 24.9288 10.4433 24.5555 10.902C24.1822 11.3607 23.7555 11.7287 23.2755 12.006C22.8062 12.294 22.3155 12.438 21.8035 12.438Z"/>
<path d="M34.7596 12.246C34.3756 12.246 34.093 12.1287 33.9116 11.894C33.7303 11.6593 33.6396 11.3767 33.6396 11.046C33.6396 10.79 33.677 10.534 33.7516 10.278C33.837 10.0113 33.917 9.75533 33.9916 9.51C34.0663 9.254 34.1036 9.03 34.1036 8.838C34.1036 8.63533 34.061 8.49667 33.9756 8.422C33.8903 8.33667 33.789 8.294 33.6716 8.294C33.4156 8.294 33.1276 8.49667 32.8076 8.902C32.4876 9.29667 32.0823 9.86733 31.5916 10.614C31.421 10.87 31.2716 11.1313 31.1436 11.398C31.0156 11.6647 30.8983 11.8993 30.7916 12.102C30.6956 12.102 30.5783 12.0913 30.4396 12.07C30.3116 12.0487 30.1943 12.0113 30.0876 11.958C29.981 11.9047 29.9276 11.8353 29.9276 11.75C29.9276 11.6753 29.9756 11.4993 30.0716 11.222C30.1783 10.934 30.2956 10.6033 30.4236 10.23C30.5623 9.85667 30.685 9.48333 30.7916 9.11C30.8983 8.726 30.9516 8.40067 30.9516 8.134C30.9516 7.96333 30.9196 7.82467 30.8556 7.718C30.8023 7.61133 30.7063 7.558 30.5676 7.558C30.333 7.558 30.0503 7.69667 29.7196 7.974C29.3996 8.25133 29.0636 8.61933 28.7116 9.078C28.3703 9.526 28.0396 10.022 27.7196 10.566C27.4103 11.0993 27.1596 11.638 26.9676 12.182C26.8716 12.182 26.749 12.1607 26.5996 12.118C26.4503 12.086 26.3223 12.038 26.2156 11.974C26.0983 11.9207 26.0396 11.8673 26.0396 11.814C26.0396 11.7713 26.093 11.5953 26.1996 11.286C26.2956 10.9767 26.4076 10.6033 26.5356 10.166C26.6636 9.718 26.7863 9.26467 26.9036 8.806C27.021 8.34733 27.0903 7.94733 27.1116 7.606C27.165 7.51 27.2716 7.42467 27.4316 7.35C27.5916 7.26467 27.7463 7.222 27.8956 7.222C28.045 7.222 28.1623 7.26467 28.2476 7.35C28.333 7.43533 28.3756 7.54733 28.3756 7.686C28.3756 7.814 28.3383 8.022 28.2636 8.31C28.1996 8.598 28.1196 8.92333 28.0236 9.286C28.237 8.95533 28.477 8.62467 28.7436 8.294C29.0103 7.95267 29.2876 7.64333 29.5756 7.366C29.8636 7.08867 30.1516 6.86467 30.4396 6.694C30.7383 6.52333 31.0263 6.438 31.3036 6.438C31.6556 6.438 31.8956 6.566 32.0236 6.822C32.1516 7.078 32.2156 7.37133 32.2156 7.702C32.2156 7.926 32.1943 8.16067 32.1516 8.406C32.109 8.64067 32.0556 8.86467 31.9916 9.078C31.9276 9.29133 31.8636 9.478 31.7996 9.638C32.013 9.26467 32.2476 8.91267 32.5036 8.582C32.7703 8.24067 33.0583 7.96333 33.3676 7.75C33.677 7.53667 34.0023 7.43 34.3436 7.43C34.7063 7.43 34.957 7.542 35.0956 7.766C35.245 7.97933 35.3196 8.23 35.3196 8.518C35.3196 8.79533 35.2716 9.094 35.1756 9.414C35.0796 9.734 34.9836 10.0433 34.8876 10.342C34.7916 10.6407 34.7436 10.8967 34.7436 11.11C34.7436 11.238 34.7756 11.3553 34.8396 11.462C34.9036 11.5687 35.021 11.622 35.1916 11.622C35.4903 11.622 35.7676 11.4887 36.0236 11.222C36.2903 10.9447 36.5356 10.614 36.7596 10.23C36.9943 9.83533 37.1916 9.45667 37.3516 9.094L37.5596 9.366C37.389 9.80333 37.1703 10.246 36.9036 10.694C36.637 11.142 36.3223 11.51 35.9596 11.798C35.6076 12.0967 35.2076 12.246 34.7596 12.246Z"/>
<path d="M38.7655 12.646C38.2428 12.646 37.8055 12.4753 37.4535 12.134C37.1122 11.7927 36.9415 11.2753 36.9415 10.582C36.9415 10.0487 37.0428 9.53133 37.2455 9.03C37.4482 8.518 37.7202 8.06467 38.0615 7.67C38.4028 7.26467 38.7815 6.94467 39.1975 6.71C39.6242 6.46467 40.0455 6.342 40.4615 6.342C40.8988 6.342 41.2028 6.46467 41.3735 6.71C41.5442 6.95533 41.6295 7.222 41.6295 7.51C41.6295 7.80867 41.5548 8.086 41.4055 8.342C41.2668 8.58733 41.0748 8.71 40.8295 8.71C40.6482 8.71 40.4935 8.62467 40.3655 8.454C40.5042 8.36867 40.6322 8.20867 40.7495 7.974C40.8668 7.72867 40.9255 7.47267 40.9255 7.206C40.9255 7.09933 40.8988 7.014 40.8455 6.95C40.8028 6.886 40.7175 6.854 40.5895 6.854C40.3122 6.854 40.0188 6.982 39.7095 7.238C39.4108 7.48333 39.1335 7.80333 38.8775 8.198C38.6215 8.59267 38.4135 9.014 38.2535 9.462C38.0935 9.89933 38.0135 10.3047 38.0135 10.678C38.0135 10.998 38.0882 11.2967 38.2375 11.574C38.3975 11.8407 38.7068 11.974 39.1655 11.974C39.5815 11.974 40.0082 11.8567 40.4455 11.622C40.8828 11.3873 41.2882 11.0567 41.6615 10.63C42.0348 10.1927 42.3388 9.68067 42.5735 9.094L42.8135 9.286C42.5682 9.93667 42.2268 10.518 41.7895 11.03C41.3522 11.5313 40.8722 11.926 40.3495 12.214C39.8268 12.502 39.2988 12.646 38.7655 12.646Z"/>
<path d="M44.2723 12.438C43.8563 12.438 43.5203 12.326 43.2643 12.102C43.0189 11.8887 42.8963 11.5953 42.8963 11.222C42.8963 10.8487 43.0296 10.486 43.2963 10.134C43.5629 9.782 43.9203 9.47267 44.3683 9.206C44.8163 8.92867 45.3176 8.71 45.8723 8.55C46.4269 8.39 46.9923 8.30467 47.5683 8.294L47.5363 8.646C47.1949 8.646 46.8109 8.726 46.3843 8.886C45.9576 9.046 45.5469 9.25933 45.1523 9.526C44.7683 9.79267 44.4483 10.0913 44.1923 10.422C43.9363 10.7527 43.8083 11.0887 43.8083 11.43C43.8083 11.7287 43.9576 11.878 44.2563 11.878C44.5869 11.878 44.9229 11.7447 45.2643 11.478C45.6056 11.2007 45.9149 10.8487 46.1923 10.422C46.4803 9.99533 46.7096 9.558 46.8803 9.11C47.0616 8.65133 47.1523 8.246 47.1523 7.894C47.1523 7.53133 47.0616 7.21133 46.8803 6.934C46.7096 6.65667 46.4109 6.518 45.9843 6.518C45.5043 6.518 45.0936 6.68867 44.7523 7.03C44.4109 7.37133 44.1656 7.85133 44.0163 8.47C43.8349 8.44867 43.6856 8.39533 43.5683 8.31C43.4509 8.214 43.3923 8.07533 43.3923 7.894C43.3923 7.59533 43.5096 7.29667 43.7443 6.998C43.9896 6.69933 44.3203 6.454 44.7363 6.262C45.1523 6.07 45.6216 5.974 46.1443 5.974C46.8163 5.974 47.3336 6.15533 47.6963 6.518C48.0589 6.88067 48.2403 7.35 48.2403 7.926C48.2403 8.406 48.1283 8.90733 47.9043 9.43C47.6909 9.95267 47.3976 10.4433 47.0243 10.902C46.6509 11.3607 46.2243 11.7287 45.7443 12.006C45.2749 12.294 44.7843 12.438 44.2723 12.438Z"/>
<path d="M48.9244 16.23C48.8177 16.23 48.6897 16.1927 48.5404 16.118C48.391 16.054 48.263 15.9153 48.1564 15.702C48.0497 15.4993 47.9964 15.19 47.9964 14.774C47.9964 14.3153 48.0764 13.7073 48.2364 12.95C48.3857 12.2033 48.599 11.382 48.8764 10.486C49.1537 9.57933 49.4737 8.65133 49.8364 7.702C50.199 6.742 50.5884 5.81933 51.0044 4.934C51.431 4.04867 51.8684 3.254 52.3164 2.55C52.7644 1.83533 53.2017 1.27 53.6284 0.854C54.0657 0.438 54.4817 0.23 54.8764 0.23C55.1217 0.23 55.2817 0.304667 55.3564 0.454C55.431 0.603333 55.4684 0.774 55.4684 0.966C55.4684 1.42467 55.3404 1.926 55.0844 2.47C54.839 3.014 54.5084 3.56333 54.0924 4.118C53.6764 4.662 53.2124 5.18467 52.7004 5.686C52.199 6.17667 51.687 6.598 51.1644 6.95C51.111 7.06733 51.063 7.19 51.0204 7.318C50.9777 7.446 50.9297 7.574 50.8764 7.702C50.9937 7.72333 51.0844 7.78733 51.1484 7.894C51.223 8.00067 51.2657 8.11267 51.2764 8.23C51.351 8.69933 51.431 9.12067 51.5164 9.494C51.6017 9.86733 51.7297 10.1607 51.9004 10.374C52.0817 10.5767 52.3377 10.678 52.6684 10.678C53.0417 10.678 53.3617 10.5447 53.6284 10.278C53.895 10.0007 54.1777 9.61133 54.4764 9.11L54.7644 9.302C54.4657 9.95267 54.1084 10.4273 53.6924 10.726C53.2764 11.0247 52.9084 11.174 52.5884 11.174C52.407 11.174 52.2097 11.1313 51.9964 11.046C51.7937 10.95 51.6017 10.8273 51.4204 10.678C51.4204 11.3393 51.3457 11.9953 51.1964 12.646C51.0577 13.3073 50.8657 13.9047 50.6204 14.438C50.3857 14.982 50.119 15.414 49.8204 15.734C49.5324 16.0647 49.2337 16.23 48.9244 16.23ZM49.3564 15.382C49.4737 15.382 49.6017 15.2753 49.7404 15.062C49.8897 14.8593 50.0337 14.5873 50.1724 14.246C50.311 13.9047 50.4337 13.526 50.5404 13.11C50.6577 12.7047 50.7484 12.2993 50.8124 11.894C50.887 11.4887 50.9244 11.1207 50.9244 10.79C50.9244 10.47 50.8817 10.182 50.7964 9.926C50.7217 9.65933 50.5937 9.35 50.4124 8.998C50.1564 9.77667 49.9217 10.5287 49.7084 11.254C49.5057 11.9793 49.3457 12.6353 49.2284 13.222C49.1217 13.8087 49.0684 14.2833 49.0684 14.646C49.0684 15.1367 49.1644 15.382 49.3564 15.382ZM51.4844 6.134C52.167 5.50467 52.7537 4.88067 53.2444 4.262C53.735 3.64333 54.1137 3.094 54.3804 2.614C54.647 2.12333 54.7804 1.77667 54.7804 1.574C54.7804 1.446 54.7164 1.382 54.5884 1.382C54.311 1.382 54.0017 1.60067 53.6604 2.038C53.319 2.46467 52.9617 3.03533 52.5884 3.75C52.215 4.46467 51.847 5.25933 51.4844 6.134Z"/>
<path d="M56.1941 12.438C55.7781 12.438 55.4421 12.326 55.1861 12.102C54.9408 11.8887 54.8181 11.5953 54.8181 11.222C54.8181 10.8487 54.9515 10.486 55.2181 10.134C55.4848 9.782 55.8421 9.47267 56.2901 9.206C56.7381 8.92867 57.2395 8.71 57.7941 8.55C58.3488 8.39 58.9141 8.30467 59.4901 8.294L59.4581 8.646C59.1168 8.646 58.7328 8.726 58.3061 8.886C57.8795 9.046 57.4688 9.25933 57.0741 9.526C56.6901 9.79267 56.3701 10.0913 56.1141 10.422C55.8581 10.7527 55.7301 11.0887 55.7301 11.43C55.7301 11.7287 55.8795 11.878 56.1781 11.878C56.5088 11.878 56.8448 11.7447 57.1861 11.478C57.5275 11.2007 57.8368 10.8487 58.1141 10.422C58.4021 9.99533 58.6315 9.558 58.8021 9.11C58.9835 8.65133 59.0741 8.246 59.0741 7.894C59.0741 7.53133 58.9835 7.21133 58.8021 6.934C58.6315 6.65667 58.3328 6.518 57.9061 6.518C57.4261 6.518 57.0155 6.68867 56.6741 7.03C56.3328 7.37133 56.0875 7.85133 55.9381 8.47C55.7568 8.44867 55.6075 8.39533 55.4901 8.31C55.3728 8.214 55.3141 8.07533 55.3141 7.894C55.3141 7.59533 55.4315 7.29667 55.6661 6.998C55.9115 6.69933 56.2421 6.454 56.6581 6.262C57.0741 6.07 57.5435 5.974 58.0661 5.974C58.7381 5.974 59.2555 6.15533 59.6181 6.518C59.9808 6.88067 60.1621 7.35 60.1621 7.926C60.1621 8.406 60.0501 8.90733 59.8261 9.43C59.6128 9.95267 59.3195 10.4433 58.9461 10.902C58.5728 11.3607 58.1461 11.7287 57.6661 12.006C57.1968 12.294 56.7061 12.438 56.1941 12.438Z"/>
<path d="M63.8223 12.166C63.4489 12.166 63.1503 12.0647 62.9263 11.862C62.7129 11.67 62.6063 11.414 62.6063 11.094C62.6063 10.774 62.6809 10.4433 62.8302 10.102C62.9796 9.75 63.1236 9.40333 63.2623 9.062C63.4116 8.72067 63.4863 8.41667 63.4863 8.15C63.4863 7.84067 63.3956 7.606 63.2143 7.446C63.0329 7.27533 62.8356 7.126 62.6223 6.998C62.3876 7.606 62.1316 8.19267 61.8543 8.758C61.5769 9.31267 61.3529 9.73933 61.1823 10.038L61.0063 9.702C61.1556 9.42467 61.3476 9.02467 61.5823 8.502C61.8276 7.96867 62.0676 7.37133 62.3022 6.71C62.1956 6.60333 62.1423 6.47 62.1423 6.31C62.1423 6.00067 62.2276 5.73933 62.3983 5.526C62.5796 5.31267 62.7236 5.206 62.8302 5.206C62.9582 5.206 63.0329 5.26467 63.0543 5.382C63.0863 5.48867 63.1023 5.56867 63.1023 5.622C63.1023 5.67533 63.0756 5.77667 63.0223 5.926C62.9689 6.07533 62.9369 6.17133 62.9263 6.214C62.9369 6.35267 63.0223 6.486 63.1823 6.614C63.3529 6.73133 63.5449 6.86467 63.7583 7.014C63.9823 7.16333 64.1743 7.35 64.3343 7.574C64.5049 7.798 64.5903 8.08067 64.5903 8.422C64.5903 8.73133 64.5209 9.05133 64.3823 9.382C64.2543 9.71267 64.1209 10.022 63.9823 10.31C63.8543 10.598 63.7903 10.854 63.7903 11.078C63.7903 11.2487 63.8329 11.366 63.9183 11.43C64.0143 11.4833 64.1209 11.51 64.2383 11.51C64.4943 11.51 64.7556 11.4353 65.0223 11.286C65.2996 11.126 65.5663 10.9233 65.8223 10.678C66.0889 10.4327 66.3236 10.1767 66.5262 9.91C66.7289 9.63267 66.8783 9.37667 66.9743 9.142L67.2463 9.35C67.0436 9.798 66.7609 10.2407 66.3983 10.678C66.0356 11.1153 65.6303 11.4727 65.1823 11.75C64.7449 12.0273 64.2916 12.166 63.8223 12.166Z"/>
</svg>
